G04 DipTrace 3.3.1.3*
G04 patch_panel_RG-45_5e_cat_24-port_Top.gtl*
%MOMM*%
G04 #@! TF.FileFunction,Copper,L1,Top*
G04 #@! TF.Part,Single*
G04 #@! TA.AperFunction,Conductor*
%ADD13C,0.3*%
%ADD14C,0.4*%
G04 #@! TA.AperFunction,ComponentPad*
%ADD15C,1.7*%
%ADD16C,1.5*%
G04 #@! TA.AperFunction,ViaPad*
%ADD17C,0.8*%
%FSLAX35Y35*%
G04*
G71*
G90*
G75*
G01*
G04 Top*
%LPD*%
X8588373Y2286000D2*
D13*
Y1874377D1*
X8069300D1*
Y1744000D1*
X8763003D1*
X8588373Y1874377D2*
X8763003D1*
X8588373Y2286000D2*
D14*
X8509000Y2413000D1*
X7969250Y2794000D1*
X7366000Y3048000D1*
D13*
Y3306747D1*
X8089353D1*
X6472933Y3305263D2*
X7175190D1*
Y3175310D1*
X7302500Y3048000D1*
X7366000D1*
X8125017Y1672000D2*
X8842373D1*
Y1809750D1*
Y2286000D1*
X8159750Y1809750D2*
X8842373D1*
Y2286000D2*
D14*
X8318500Y2809873D1*
Y3143250D1*
X8413750Y3238500D1*
X8699500D1*
X8890000Y3048000D1*
X8904897Y2826940D2*
D13*
X9271000D1*
Y3048000D1*
X9191627Y2763393D2*
X8816300D1*
Y2893203D1*
X9191647D1*
X8509000Y3048000D2*
X8741197Y2893203D1*
X8816300D1*
X8509000Y3048000D2*
D14*
Y2778127D1*
X8969373Y2397127D1*
Y2206627D1*
X9032873Y2159000D1*
X9223373Y2032000D1*
X8915160Y1200880D2*
D13*
X9119523D1*
Y1329840D1*
Y1511583D1*
X9207500Y1968500D1*
X9223373Y2032000D1*
X9119523Y1329840D2*
X8698783D1*
X8128000Y3048000D2*
Y3235700D1*
X7468557D1*
X8651873Y2809873D2*
D14*
X8667747Y2794000D1*
X9096373Y2444750D1*
Y2286000D1*
X7143750Y2032000D2*
D13*
Y2536863D1*
X6220553D1*
X9271000Y381000D2*
D14*
X9008993Y118993D1*
X7989160D1*
X7899460Y259953D1*
Y510253D1*
X7540627Y777873D1*
X7413627Y904873D1*
X5445123Y2286000D2*
D13*
Y1874377D1*
X4989550D1*
Y1744000D1*
X5619753D1*
X5445123Y1874377D2*
X5619753D1*
X5445123Y2286000D2*
D14*
X5429250Y2413000D1*
X4889500Y2794000D1*
X4286250Y3048000D1*
D13*
Y3306747D1*
X5009603D1*
X3393183Y3305263D2*
X4095440D1*
Y3175310D1*
X4222750Y3048000D1*
X4286250D1*
X9033813Y1266890D2*
X8636000D1*
Y1397000D1*
X8858250D1*
X9017000Y1778000D1*
D14*
Y1841500D1*
X8969373Y2032000D1*
X8858250Y1397000D2*
D13*
X9048750D1*
X6604000Y3048000D2*
X6460863D1*
Y3236620D1*
X7085163D1*
X6604000Y3048000D2*
D14*
X6731000Y2889250D1*
X7302500D1*
Y2825750D1*
X8334373Y2286000D1*
X8461373Y2032000D2*
X8096250Y2222500D1*
Y2286000D1*
X7175500Y2794000D1*
X6222993Y2603500D2*
D13*
X7287967D1*
X7524750Y2286000D1*
D14*
X7731127Y2174873D1*
X7794627Y2063750D1*
X7769013Y1914230D1*
X7620000Y1635127D1*
X7524750Y1476373D1*
Y1317627D1*
X7588250Y1206500D1*
X8413750Y603250D1*
X7651750Y2032000D2*
X7604127Y1841500D1*
X7413623Y1555750D1*
X7413627Y1333500D1*
X7493000Y1174750D1*
X8509000Y381000D1*
X8890000D2*
X8694727Y215770D1*
X8064737D1*
X7983260Y297247D1*
Y627550D1*
X7270750Y1143000D1*
Y2286000D1*
X5045267Y1672000D2*
D13*
X5699123D1*
Y1809750D1*
Y2286000D1*
X5080000Y1809750D2*
X5699123D1*
Y2286000D2*
D14*
X5238750Y2746373D1*
Y3143250D1*
X5334000Y3238500D1*
X5619750D1*
X5810250Y3048000D1*
X7747000Y381000D2*
X7703267D1*
X7576267Y570887D1*
X7366347D1*
X7207250Y889000D1*
X6604000Y381000D2*
D13*
X6445250D1*
Y228307D1*
X7133530D1*
X6762750Y2286000D2*
D14*
Y2000250D1*
X6889750Y1619250D1*
X6969127Y1524000D1*
X6969123Y1190623D1*
X6905627Y1031873D1*
X6604000Y381000D1*
X6480037Y161060D2*
D13*
X7207250D1*
Y254000D1*
X7366000Y381000D1*
X7016750Y2286000D2*
D14*
Y1884297D1*
X7179053Y1804630D1*
Y1598253D1*
X7089937Y1509137D1*
Y828780D1*
X7366000Y381000D1*
X6889750Y2032000D2*
Y2365377D1*
X6794500Y2428877D1*
X6683377D1*
X6619873Y2349500D1*
X6651627Y2079627D1*
X6746873Y1714500D1*
X6873873Y1460500D1*
Y1238250D1*
X6762750Y1047750D1*
X6508750Y603250D1*
X5825147Y2826940D2*
D13*
X6191250D1*
Y3048000D1*
X6127753Y2763393D2*
X5736550D1*
Y2893203D1*
X6111897D1*
X5429250Y3048000D2*
X5661447Y2893203D1*
X5736550D1*
X5429250Y3048000D2*
D14*
Y2794000D1*
X5826123Y2397127D1*
Y2206627D1*
X6080123Y2032000D1*
X5771910Y1200880D2*
D13*
X5976273D1*
Y1329840D1*
Y1511583D1*
X6080123Y2032000D1*
X5976273Y1329840D2*
X5555533D1*
X5048250Y3048000D2*
Y3235700D1*
X4388807D1*
X5572123Y2809873D2*
D14*
X5953123Y2428873D1*
Y2286000D1*
X4000500Y2032000D2*
D13*
Y2536863D1*
X3140803D1*
X6191250Y381000D2*
D14*
X5929243Y118993D1*
X4909410D1*
X4819710Y259953D1*
Y510253D1*
X4460877Y777873D1*
X4270377Y904873D1*
X5890563Y1266890D2*
D13*
X5492750D1*
Y1397000D1*
X5715000D1*
X5873750Y1778000D1*
D14*
X5826123Y2032000D1*
X5715000Y1397000D2*
D13*
X5905500D1*
X3524250Y3048000D2*
X3381113D1*
Y3236620D1*
X4005413D1*
X3524250Y3048000D2*
D14*
X3651250Y2889250D1*
X4222750D1*
Y2825750D1*
X5191123Y2286000D1*
X5318123Y2032000D2*
X5016500Y2222500D1*
Y2286000D1*
X4095750Y2794000D1*
X3143243Y2603500D2*
D13*
X4208217D1*
X4381500Y2286000D1*
D14*
X4651377Y2174873D1*
X4714877Y2063750D1*
X4689263Y1914230D1*
X4492627Y1635127D1*
X4397377Y1476373D1*
Y1317627D1*
X4460877Y1206500D1*
X5334000Y603250D1*
X4508500Y2032000D2*
Y1841500D1*
X4270373Y1555750D1*
X4254503Y1333500D1*
X4349750Y1174750D1*
X5429250Y381000D1*
X5810250D2*
X5614977Y215770D1*
X4984987D1*
X4903510Y297247D1*
Y627550D1*
X4127500Y1158877D1*
Y2286000D1*
X4667250Y381000D2*
X4623517D1*
X4496517Y570887D1*
X4286597D1*
X4064000Y889000D1*
X3524250Y381000D2*
D13*
X3365500D1*
Y228307D1*
X4053780D1*
X3619500Y2286000D2*
D14*
Y2000250D1*
X3746500Y1619250D1*
X3825877Y1524000D1*
X3825873Y1190623D1*
X3825877Y1031873D1*
X3524250Y381000D1*
X3400287Y161060D2*
D13*
X4127500D1*
Y254000D1*
X4286250Y381000D1*
X3873500Y2286000D2*
D14*
Y1857377D1*
X4035803Y1772880D1*
Y1534753D1*
X3946687Y1445637D1*
Y828780D1*
X4286250Y381000D1*
X3746500Y2032000D2*
Y2349500D1*
X3698877Y2428877D1*
X3540127D1*
X3476623Y2349500D1*
X3508377Y2079627D1*
X3603623Y1714500D1*
X3730623Y1460500D1*
Y1238250D1*
X3667127Y1047750D1*
X3429000Y603250D1*
X2316873Y2286000D2*
D13*
Y1874377D1*
X1925677D1*
Y1744000D1*
X2508253D1*
X2316873Y1874377D2*
X2492380D1*
X2316873Y2286000D2*
D14*
X2349500Y2413000D1*
X1809750Y2794000D1*
X1206500Y3048000D1*
D13*
Y3306747D1*
X1929853D1*
X313433Y3305263D2*
X1015690D1*
Y3175310D1*
X1143000Y3048000D1*
X1206500D1*
X1965517Y1672000D2*
X2571750D1*
Y1809750D1*
X2570873D1*
Y2286000D1*
X2000250Y1809750D2*
X2570873D1*
Y2286000D2*
D14*
X2159000Y2697873D1*
Y3143250D1*
X2254250Y3238500D1*
X2540000D1*
X2730500Y3048000D1*
X2745397Y2826940D2*
D13*
X3111500D1*
Y3048000D1*
X3032127Y2763393D2*
X2656800D1*
Y2893203D1*
X3032147D1*
X2349500Y3048000D2*
X2581697Y2893203D1*
X2656800D1*
X2349500Y3048000D2*
D14*
Y2778127D1*
X2698750Y2397127D1*
Y2206627D1*
X2951873Y2032000D1*
X2644537Y1359630D2*
D13*
X2848900D1*
Y1488590D1*
Y1670333D1*
X2951873Y2032000D1*
X2848900Y1488590D2*
X2428157D1*
X1968500Y3048000D2*
Y3235700D1*
X1309057D1*
X2492373Y2809873D2*
D14*
X2824873Y2477373D1*
Y2286000D1*
X872250Y2032000D2*
D13*
Y2536863D1*
X92803D1*
X3111500Y381000D2*
D14*
X2849493Y118993D1*
X1829660D1*
X1739960Y259953D1*
Y510253D1*
X1381127Y777873D1*
X1142127Y904873D1*
X2763187Y1425640D2*
D13*
X2365373D1*
Y1555750D1*
X2587623D1*
X2745500Y1778000D1*
D14*
X2697873Y2032000D1*
X2587623Y1555750D2*
D13*
X2778127D1*
X444500Y3048000D2*
X301363D1*
Y3236620D1*
X925663D1*
X444500Y3048000D2*
D14*
X571500Y2889250D1*
X1143000D1*
Y2825750D1*
X2062873Y2286000D1*
X2189873Y2032000D2*
X1905000Y2222500D1*
Y2286000D1*
X1016000Y2794000D1*
X95243Y2603500D2*
D13*
X1160217D1*
X1253250Y2286000D1*
D14*
X1539873Y2174873D1*
Y1920873D1*
X1378337Y1663963D1*
X1233180Y1365763D1*
X1254123Y1174753D1*
X1365250Y1079500D1*
X2254250Y603250D1*
X1380250Y2032000D2*
Y1871500D1*
X1127127Y1412877D1*
X1127123Y1206500D1*
X1238250Y1031873D1*
X2349500Y381000D1*
X2730500D2*
X2535227Y215770D1*
X1905237D1*
X1823760Y297247D1*
Y606220D1*
X999250Y1106327D1*
Y2286000D1*
X1587500Y381000D2*
X1543767D1*
X1416767Y570887D1*
X1206847D1*
X935750Y889000D1*
X444500Y381000D2*
D13*
X285750D1*
Y228307D1*
X974030D1*
X491250Y2286000D2*
D14*
X479693Y2274443D1*
Y2006840D1*
X666750Y1571627D1*
X746127Y1349373D1*
X709580Y1058693D1*
X698500Y1031873D1*
X444500Y381000D1*
X320537Y161060D2*
D13*
X1047750D1*
Y254000D1*
X1206500Y381000D1*
X745250Y2286000D2*
D14*
Y1873470D1*
X908430Y1804630D1*
Y1399777D1*
X835187Y1330137D1*
Y828780D1*
X1206500Y381000D1*
X618250Y2032000D2*
Y2365377D1*
X523877Y2428877D1*
X412753D1*
X349250Y2349500D1*
Y2079627D1*
X492127Y1714500D1*
X619127Y1412877D1*
X603250Y1143000D1*
X523873Y984250D1*
X349250Y603250D1*
D17*
X8651873Y2809873D3*
X9017000Y1778000D3*
X7175500Y2794000D3*
X8413750Y603250D3*
X7413627Y904873D3*
X7207250Y889000D3*
X6508750Y603250D3*
X5572123Y2809873D3*
X5873750Y1778000D3*
X4095750Y2794000D3*
X5334000Y603250D3*
X4270377Y904873D3*
X4064000Y889000D3*
X3429000Y603250D3*
X2492373Y2809873D3*
X2745500Y1778000D3*
X1016000Y2794000D3*
X2254250Y603250D3*
X1142127Y904873D3*
X935750Y889000D3*
X349250Y603250D3*
D15*
X6604000Y3048000D3*
X6985000D3*
X7366000D3*
X7747000D3*
X8128000D3*
X8509000D3*
X8890000D3*
X9271000D3*
Y381000D3*
X8890000D3*
X8509000D3*
X8128000D3*
X7747000D3*
X7366000D3*
X6985000D3*
X6604000D3*
D16*
X9223373Y2032000D3*
X9096373Y2286000D3*
X8969373Y2032000D3*
X8842373Y2286000D3*
X8715373Y2032000D3*
X8588373Y2286000D3*
X8461373Y2032000D3*
X8334373Y2286000D3*
X7651750Y2032000D3*
X7524750Y2286000D3*
X7397750Y2032000D3*
X7270750Y2286000D3*
X7143750Y2032000D3*
X7016750Y2286000D3*
X6889750Y2032000D3*
X6762750Y2286000D3*
D15*
X3524250Y3048000D3*
X3905250D3*
X4286250D3*
X4667250D3*
X5048250D3*
X5429250D3*
X5810250D3*
X6191250D3*
Y381000D3*
X5810250D3*
X5429250D3*
X5048250D3*
X4667250D3*
X4286250D3*
X3905250D3*
X3524250D3*
D16*
X6080123Y2032000D3*
X5953123Y2286000D3*
X5826123Y2032000D3*
X5699123Y2286000D3*
X5572123Y2032000D3*
X5445123Y2286000D3*
X5318123Y2032000D3*
X5191123Y2286000D3*
X4508500Y2032000D3*
X4381500Y2286000D3*
X4254500Y2032000D3*
X4127500Y2286000D3*
X4000500Y2032000D3*
X3873500Y2286000D3*
X3746500Y2032000D3*
X3619500Y2286000D3*
D15*
X444500Y3048000D3*
X825500D3*
X1206500D3*
X1587500D3*
X1968500D3*
X2349500D3*
X2730500D3*
X3111500D3*
Y381000D3*
X2730500D3*
X2349500D3*
X1968500D3*
X1587500D3*
X1206500D3*
X825500D3*
X444500D3*
D16*
X2951873Y2032000D3*
X2824873Y2286000D3*
X2697873Y2032000D3*
X2570873Y2286000D3*
X2443873Y2032000D3*
X2316873Y2286000D3*
X2189873Y2032000D3*
X2062873Y2286000D3*
X1380250Y2032000D3*
X1253250Y2286000D3*
X1126250Y2032000D3*
X999250Y2286000D3*
X872250Y2032000D3*
X745250Y2286000D3*
X618250Y2032000D3*
X491250Y2286000D3*
M02*
