G04 DipTrace 3.3.1.3*
G04 patch_panel_RG-45_5e_cat_24-port_TopSilk.gto*
%MOMM*%
G04 #@! TF.FileFunction,Legend,Top*
G04 #@! TF.Part,Single*
%ADD10C,0.25*%
%ADD13C,0.3*%
%ADD27C,0.23529*%
%ADD28C,0.39216*%
%FSLAX35Y35*%
G04*
G71*
G90*
G75*
G01*
G04 TopSilk*
%LPD*%
X6413500Y2730498D2*
D10*
X9461500D1*
Y3349604D2*
Y2730498D1*
Y3349604D2*
X6413500D1*
Y2730498D2*
Y3349604D1*
X6572301Y3460748D2*
Y3365524D1*
Y3460748D1*
X6635699D1*
X6572301D1*
X6635699D2*
Y3365524D1*
Y3460748D1*
X9239301D2*
Y3365524D1*
Y3460748D1*
X9302699D1*
X9239301D1*
X9302699D2*
Y3365524D1*
Y3460748D1*
X9461500Y698502D2*
X6413500D1*
Y79396D2*
Y698502D1*
Y79396D2*
X9461500D1*
Y698502D2*
Y79396D1*
X9302699Y-31748D2*
Y63476D1*
Y-31748D1*
X9239301D1*
X9302699D1*
X9239301D2*
Y63476D1*
Y-31748D1*
X6635699D2*
Y63476D1*
Y-31748D1*
X6572301D1*
X6635699D1*
X6572301D2*
Y63476D1*
Y-31748D1*
X3333750Y2730498D2*
X6381750D1*
Y3349604D2*
Y2730498D1*
Y3349604D2*
X3333750D1*
Y2730498D2*
Y3349604D1*
X3492551Y3460748D2*
Y3365524D1*
Y3460748D1*
X3555949D1*
X3492551D1*
X3555949D2*
Y3365524D1*
Y3460748D1*
X6159551D2*
Y3365524D1*
Y3460748D1*
X6222949D1*
X6159551D1*
X6222949D2*
Y3365524D1*
Y3460748D1*
X6381750Y698502D2*
X3333750D1*
Y79396D2*
Y698502D1*
Y79396D2*
X6381750D1*
Y698502D2*
Y79396D1*
X6222949Y-31748D2*
Y63476D1*
Y-31748D1*
X6159551D1*
X6222949D1*
X6159551D2*
Y63476D1*
Y-31748D1*
X3555949D2*
Y63476D1*
Y-31748D1*
X3492551D1*
X3555949D1*
X3492551D2*
Y63476D1*
Y-31748D1*
X254000Y2730498D2*
X3302000D1*
Y3349604D2*
Y2730498D1*
Y3349604D2*
X254000D1*
Y2730498D2*
Y3349604D1*
X412801Y3460748D2*
Y3365524D1*
Y3460748D1*
X476199D1*
X412801D1*
X476199D2*
Y3365524D1*
Y3460748D1*
X3079801D2*
Y3365524D1*
Y3460748D1*
X3143199D1*
X3079801D1*
X3143199D2*
Y3365524D1*
Y3460748D1*
X3302000Y698502D2*
X254000D1*
Y79396D2*
Y698502D1*
Y79396D2*
X3302000D1*
Y698502D2*
Y79396D1*
X3143199Y-31748D2*
Y63476D1*
Y-31748D1*
X3079801D1*
X3143199D1*
X3079801D2*
Y63476D1*
Y-31748D1*
X476199D2*
Y63476D1*
Y-31748D1*
X412801D1*
X476199D1*
X412801D2*
Y63476D1*
Y-31748D1*
X698500Y1333500D2*
D13*
X699138Y1351218D1*
X701049Y1368850D1*
X704224Y1386310D1*
X708647Y1403512D1*
X714297Y1420373D1*
X721146Y1436811D1*
X729161Y1452746D1*
X738302Y1468099D1*
X748526Y1482797D1*
X759782Y1496768D1*
X772016Y1509943D1*
X785167Y1522259D1*
X799173Y1533655D1*
X813964Y1544076D1*
X829469Y1553470D1*
X845612Y1561794D1*
X862315Y1569005D1*
X879495Y1575068D1*
X897070Y1579955D1*
X914953Y1583641D1*
X933058Y1586109D1*
X951297Y1587345D1*
X969580D1*
X987818Y1586109D1*
X1005923Y1583641D1*
X1023807Y1579955D1*
X1041382Y1575068D1*
X1058562Y1569005D1*
X1075265Y1561794D1*
X1091408Y1553470D1*
X1106912Y1544076D1*
X1121704Y1533655D1*
X1135709Y1522259D1*
X1148861Y1509943D1*
X1161095Y1496768D1*
X1172351Y1482797D1*
X1182575Y1468099D1*
X1191716Y1452746D1*
X1199731Y1436811D1*
X1206580Y1420373D1*
X1212230Y1403512D1*
X1216653Y1386310D1*
X1219828Y1368850D1*
X1221739Y1351218D1*
X1222377Y1333500D1*
X1221739Y1315782D1*
X1219828Y1298150D1*
X1216653Y1280690D1*
X1212230Y1263488D1*
X1206580Y1246627D1*
X1199731Y1230189D1*
X1191716Y1214254D1*
X1182575Y1198901D1*
X1172351Y1184203D1*
X1161095Y1170232D1*
X1148861Y1157057D1*
X1135709Y1144741D1*
X1121704Y1133345D1*
X1106912Y1122924D1*
X1091408Y1113530D1*
X1075265Y1105206D1*
X1058562Y1097995D1*
X1041382Y1091932D1*
X1023807Y1087045D1*
X1005923Y1083359D1*
X987818Y1080891D1*
X969580Y1079655D1*
X951297D1*
X933058Y1080891D1*
X914953Y1083359D1*
X897070Y1087045D1*
X879495Y1091932D1*
X862315Y1097995D1*
X845612Y1105206D1*
X829469Y1113530D1*
X813964Y1122924D1*
X799173Y1133345D1*
X785167Y1144741D1*
X772016Y1157057D1*
X759782Y1170232D1*
X748526Y1184203D1*
X738302Y1198901D1*
X729161Y1214254D1*
X721146Y1230189D1*
X714297Y1246627D1*
X708647Y1263488D1*
X704224Y1280690D1*
X701049Y1298150D1*
X699138Y1315782D1*
X698500Y1333500D1*
X2238377Y1619248D2*
X2239015Y1636967D1*
X2240926Y1654599D1*
X2244101Y1672058D1*
X2248524Y1689261D1*
X2254173Y1706122D1*
X2261022Y1722560D1*
X2269037Y1738495D1*
X2278179Y1753849D1*
X2288402Y1768547D1*
X2299659Y1782517D1*
X2311892Y1795693D1*
X2325044Y1808008D1*
X2339050Y1819404D1*
X2353841Y1829825D1*
X2369346Y1839220D1*
X2385489Y1847544D1*
X2402191Y1854755D1*
X2419372Y1860818D1*
X2436946Y1865705D1*
X2454830Y1869391D1*
X2472935Y1871859D1*
X2491173Y1873095D1*
X2509457D1*
X2527695Y1871859D1*
X2545800Y1869391D1*
X2563684Y1865705D1*
X2581258Y1860818D1*
X2598439Y1854755D1*
X2615141Y1847544D1*
X2631284Y1839220D1*
X2646789Y1829825D1*
X2661580Y1819404D1*
X2675586Y1808008D1*
X2688738Y1795693D1*
X2700971Y1782517D1*
X2712228Y1768547D1*
X2722451Y1753849D1*
X2731593Y1738495D1*
X2739608Y1722560D1*
X2746457Y1706122D1*
X2752106Y1689261D1*
X2756529Y1672058D1*
X2759704Y1654599D1*
X2761615Y1636967D1*
X2762253Y1619248D1*
X2761615Y1601530D1*
X2759704Y1583898D1*
X2756529Y1566438D1*
X2752106Y1549236D1*
X2746457Y1532375D1*
X2739608Y1515937D1*
X2731593Y1500002D1*
X2722451Y1484648D1*
X2712228Y1469950D1*
X2700971Y1455979D1*
X2688738Y1442804D1*
X2675586Y1430488D1*
X2661580Y1419092D1*
X2646789Y1408671D1*
X2631284Y1399276D1*
X2615141Y1390953D1*
X2598439Y1383742D1*
X2581258Y1377678D1*
X2563684Y1372792D1*
X2545800Y1369106D1*
X2527695Y1366638D1*
X2509457Y1365401D1*
X2491173D1*
X2472935Y1366638D1*
X2454830Y1369106D1*
X2436946Y1372792D1*
X2419372Y1377678D1*
X2402191Y1383742D1*
X2385489Y1390953D1*
X2369346Y1399276D1*
X2353841Y1408671D1*
X2339050Y1419092D1*
X2325044Y1430488D1*
X2311892Y1442804D1*
X2299659Y1455979D1*
X2288402Y1469950D1*
X2278179Y1484648D1*
X2269037Y1500002D1*
X2261022Y1515937D1*
X2254173Y1532375D1*
X2248524Y1549236D1*
X2244101Y1566438D1*
X2240926Y1583898D1*
X2239015Y1601530D1*
X2238377Y1619248D1*
X3794127Y1333498D2*
X3794765Y1351217D1*
X3796676Y1368849D1*
X3799851Y1386308D1*
X3804274Y1403511D1*
X3809923Y1420372D1*
X3816772Y1436810D1*
X3824787Y1452745D1*
X3833929Y1468099D1*
X3844152Y1482797D1*
X3855409Y1496767D1*
X3867642Y1509943D1*
X3880794Y1522258D1*
X3894800Y1533654D1*
X3909591Y1544075D1*
X3925096Y1553470D1*
X3941239Y1561794D1*
X3957941Y1569005D1*
X3975122Y1575068D1*
X3992696Y1579955D1*
X4010580Y1583641D1*
X4028685Y1586109D1*
X4046923Y1587345D1*
X4065207D1*
X4083445Y1586109D1*
X4101550Y1583641D1*
X4119434Y1579955D1*
X4137008Y1575068D1*
X4154189Y1569005D1*
X4170891Y1561794D1*
X4187034Y1553470D1*
X4202539Y1544075D1*
X4217330Y1533654D1*
X4231336Y1522258D1*
X4244488Y1509943D1*
X4256721Y1496767D1*
X4267978Y1482797D1*
X4278201Y1468099D1*
X4287343Y1452745D1*
X4295358Y1436810D1*
X4302207Y1420372D1*
X4307856Y1403511D1*
X4312279Y1386308D1*
X4315454Y1368849D1*
X4317365Y1351217D1*
X4318003Y1333498D1*
X4317365Y1315780D1*
X4315454Y1298148D1*
X4312279Y1280688D1*
X4307856Y1263486D1*
X4302207Y1246625D1*
X4295358Y1230187D1*
X4287343Y1214252D1*
X4278201Y1198898D1*
X4267978Y1184200D1*
X4256721Y1170229D1*
X4244488Y1157054D1*
X4231336Y1144738D1*
X4217330Y1133342D1*
X4202539Y1122921D1*
X4187034Y1113526D1*
X4170891Y1105203D1*
X4154189Y1097992D1*
X4137008Y1091928D1*
X4119434Y1087042D1*
X4101550Y1083356D1*
X4083445Y1080888D1*
X4065207Y1079651D1*
X4046923D1*
X4028685Y1080888D1*
X4010580Y1083356D1*
X3992696Y1087042D1*
X3975122Y1091928D1*
X3957941Y1097992D1*
X3941239Y1105203D1*
X3925096Y1113526D1*
X3909591Y1122921D1*
X3894800Y1133342D1*
X3880794Y1144738D1*
X3867642Y1157054D1*
X3855409Y1170229D1*
X3844152Y1184200D1*
X3833929Y1198898D1*
X3824787Y1214252D1*
X3816772Y1230187D1*
X3809923Y1246625D1*
X3804274Y1263486D1*
X3799851Y1280688D1*
X3796676Y1298148D1*
X3794765Y1315780D1*
X3794127Y1333498D1*
X5381627Y1571623D2*
X5382265Y1589341D1*
X5384176Y1606973D1*
X5387351Y1624433D1*
X5391774Y1641635D1*
X5397423Y1658496D1*
X5404272Y1674934D1*
X5412287Y1690869D1*
X5421429Y1706223D1*
X5431652Y1720921D1*
X5442909Y1734891D1*
X5455142Y1748067D1*
X5468294Y1760382D1*
X5482300Y1771778D1*
X5497091Y1782199D1*
X5512596Y1791594D1*
X5528739Y1799917D1*
X5545441Y1807128D1*
X5562622Y1813192D1*
X5580196Y1818078D1*
X5598080Y1821765D1*
X5616185Y1824232D1*
X5634423Y1825469D1*
X5652707D1*
X5670945Y1824232D1*
X5689050Y1821765D1*
X5706934Y1818078D1*
X5724508Y1813192D1*
X5741689Y1807128D1*
X5758391Y1799917D1*
X5774534Y1791594D1*
X5790039Y1782199D1*
X5804830Y1771778D1*
X5818836Y1760382D1*
X5831988Y1748067D1*
X5844221Y1734891D1*
X5855478Y1720921D1*
X5865701Y1706223D1*
X5874843Y1690869D1*
X5882858Y1674934D1*
X5889707Y1658496D1*
X5895356Y1641635D1*
X5899779Y1624433D1*
X5902954Y1606973D1*
X5904865Y1589341D1*
X5905503Y1571623D1*
X5904865Y1553905D1*
X5902954Y1536273D1*
X5899779Y1518814D1*
X5895356Y1501611D1*
X5889707Y1484750D1*
X5882858Y1468312D1*
X5874843Y1452378D1*
X5865701Y1437024D1*
X5855478Y1422326D1*
X5844221Y1408355D1*
X5831988Y1395180D1*
X5818836Y1382865D1*
X5804830Y1371469D1*
X5790039Y1361048D1*
X5774534Y1351653D1*
X5758391Y1343330D1*
X5741689Y1336119D1*
X5724508Y1330055D1*
X5706934Y1325168D1*
X5689050Y1321482D1*
X5670945Y1319015D1*
X5652707Y1317778D1*
X5634423D1*
X5616185Y1319015D1*
X5598080Y1321482D1*
X5580196Y1325168D1*
X5562622Y1330055D1*
X5545441Y1336119D1*
X5528739Y1343330D1*
X5512596Y1351653D1*
X5497091Y1361048D1*
X5482300Y1371469D1*
X5468294Y1382865D1*
X5455142Y1395180D1*
X5442909Y1408355D1*
X5431652Y1422326D1*
X5421429Y1437024D1*
X5412287Y1452378D1*
X5404272Y1468312D1*
X5397423Y1484750D1*
X5391774Y1501611D1*
X5387351Y1518814D1*
X5384176Y1536273D1*
X5382265Y1553905D1*
X5381627Y1571623D1*
X6937377Y1381123D2*
X6938015Y1398841D1*
X6939926Y1416473D1*
X6943101Y1433933D1*
X6947524Y1451135D1*
X6953173Y1467996D1*
X6960022Y1484434D1*
X6968037Y1500369D1*
X6977179Y1515723D1*
X6987402Y1530421D1*
X6998659Y1544391D1*
X7010892Y1557567D1*
X7024044Y1569882D1*
X7038050Y1581278D1*
X7052841Y1591699D1*
X7068346Y1601094D1*
X7084489Y1609417D1*
X7101191Y1616628D1*
X7118372Y1622692D1*
X7135946Y1627578D1*
X7153830Y1631265D1*
X7171935Y1633732D1*
X7190173Y1634969D1*
X7208457D1*
X7226695Y1633732D1*
X7244800Y1631265D1*
X7262684Y1627578D1*
X7280258Y1622692D1*
X7297439Y1616628D1*
X7314141Y1609417D1*
X7330284Y1601094D1*
X7345789Y1591699D1*
X7360580Y1581278D1*
X7374586Y1569882D1*
X7387738Y1557567D1*
X7399971Y1544391D1*
X7411228Y1530421D1*
X7421451Y1515723D1*
X7430593Y1500369D1*
X7438608Y1484434D1*
X7445457Y1467996D1*
X7451106Y1451135D1*
X7455529Y1433933D1*
X7458704Y1416473D1*
X7460615Y1398841D1*
X7461253Y1381123D1*
X7460615Y1363405D1*
X7458704Y1345773D1*
X7455529Y1328314D1*
X7451106Y1311111D1*
X7445457Y1294250D1*
X7438608Y1277812D1*
X7430593Y1261878D1*
X7421451Y1246524D1*
X7411228Y1231826D1*
X7399971Y1217855D1*
X7387738Y1204680D1*
X7374586Y1192365D1*
X7360580Y1180969D1*
X7345789Y1170548D1*
X7330284Y1161153D1*
X7314141Y1152830D1*
X7297439Y1145619D1*
X7280258Y1139555D1*
X7262684Y1134668D1*
X7244800Y1130982D1*
X7226695Y1128515D1*
X7208457Y1127278D1*
X7190173D1*
X7171935Y1128515D1*
X7153830Y1130982D1*
X7135946Y1134668D1*
X7118372Y1139555D1*
X7101191Y1145619D1*
X7084489Y1152830D1*
X7068346Y1161153D1*
X7052841Y1170548D1*
X7038050Y1180969D1*
X7024044Y1192365D1*
X7010892Y1204680D1*
X6998659Y1217855D1*
X6987402Y1231826D1*
X6977179Y1246524D1*
X6968037Y1261878D1*
X6960022Y1277812D1*
X6953173Y1294250D1*
X6947524Y1311111D1*
X6943101Y1328314D1*
X6939926Y1345773D1*
X6938015Y1363405D1*
X6937377Y1381123D1*
X8524877Y1587498D2*
X8525515Y1605217D1*
X8527426Y1622849D1*
X8530601Y1640308D1*
X8535024Y1657511D1*
X8540673Y1674372D1*
X8547522Y1690810D1*
X8555537Y1706745D1*
X8564679Y1722099D1*
X8574902Y1736797D1*
X8586159Y1750767D1*
X8598392Y1763943D1*
X8611544Y1776258D1*
X8625550Y1787654D1*
X8640341Y1798075D1*
X8655846Y1807470D1*
X8671989Y1815794D1*
X8688691Y1823005D1*
X8705872Y1829068D1*
X8723446Y1833955D1*
X8741330Y1837641D1*
X8759435Y1840109D1*
X8777673Y1841345D1*
X8795957D1*
X8814195Y1840109D1*
X8832300Y1837641D1*
X8850184Y1833955D1*
X8867758Y1829068D1*
X8884939Y1823005D1*
X8901641Y1815794D1*
X8917784Y1807470D1*
X8933289Y1798075D1*
X8948080Y1787654D1*
X8962086Y1776258D1*
X8975238Y1763943D1*
X8987471Y1750767D1*
X8998728Y1736797D1*
X9008951Y1722099D1*
X9018093Y1706745D1*
X9026108Y1690810D1*
X9032957Y1674372D1*
X9038606Y1657511D1*
X9043029Y1640308D1*
X9046204Y1622849D1*
X9048115Y1605217D1*
X9048753Y1587498D1*
X9048115Y1569780D1*
X9046204Y1552148D1*
X9043029Y1534688D1*
X9038606Y1517486D1*
X9032957Y1500625D1*
X9026108Y1484187D1*
X9018093Y1468252D1*
X9008951Y1452898D1*
X8998728Y1438200D1*
X8987471Y1424229D1*
X8975238Y1411054D1*
X8962086Y1398738D1*
X8948080Y1387342D1*
X8933289Y1376921D1*
X8917784Y1367526D1*
X8901641Y1359203D1*
X8884939Y1351992D1*
X8867758Y1345928D1*
X8850184Y1341042D1*
X8832300Y1337356D1*
X8814195Y1334888D1*
X8795957Y1333651D1*
X8777673D1*
X8759435Y1334888D1*
X8741330Y1337356D1*
X8723446Y1341042D1*
X8705872Y1345928D1*
X8688691Y1351992D1*
X8671989Y1359203D1*
X8655846Y1367526D1*
X8640341Y1376921D1*
X8625550Y1387342D1*
X8611544Y1398738D1*
X8598392Y1411054D1*
X8586159Y1424229D1*
X8574902Y1438200D1*
X8564679Y1452898D1*
X8555537Y1468252D1*
X8547522Y1484187D1*
X8540673Y1500625D1*
X8535024Y1517486D1*
X8530601Y1534688D1*
X8527426Y1552148D1*
X8525515Y1569780D1*
X8524877Y1587498D1*
X409546Y2650625D2*
D27*
X387814Y2643381D1*
X380402Y2628893D1*
Y2614237D1*
X387814Y2599749D1*
X402302Y2592337D1*
X431446Y2585093D1*
X453346Y2577849D1*
X467833Y2563193D1*
X475077Y2548706D1*
Y2526806D1*
X467833Y2512318D1*
X460590Y2504906D1*
X438690Y2497662D1*
X409546D1*
X387814Y2504906D1*
X380402Y2512318D1*
X373158Y2526806D1*
Y2548706D1*
X380402Y2563193D1*
X395058Y2577849D1*
X416790Y2585093D1*
X445933Y2592337D1*
X460590Y2599749D1*
X467833Y2614237D1*
Y2628893D1*
X460590Y2643381D1*
X438690Y2650625D1*
X409546D1*
X783299Y2497662D2*
X856242Y2650625D1*
X754155D1*
X1222586Y2628893D2*
X1215342Y2643381D1*
X1193442Y2650625D1*
X1178955D1*
X1157055Y2643381D1*
X1142399Y2621481D1*
X1135155Y2585093D1*
Y2548706D1*
X1142399Y2519562D1*
X1157055Y2504906D1*
X1178955Y2497662D1*
X1186199D1*
X1207930Y2504906D1*
X1222586Y2519562D1*
X1229830Y2541462D1*
Y2548706D1*
X1222586Y2570606D1*
X1207930Y2585093D1*
X1186199Y2592337D1*
X1178955D1*
X1157055Y2585093D1*
X1142399Y2570606D1*
X1135155Y2548706D1*
X1546688Y2634748D2*
X1626707D1*
X1583075Y2576460D1*
X1604975D1*
X1619463Y2569217D1*
X1626707Y2561973D1*
X1634119Y2540073D1*
Y2525585D1*
X1626707Y2503685D1*
X1612219Y2489029D1*
X1590319Y2481785D1*
X1568419D1*
X1546688Y2489029D1*
X1539444Y2496441D1*
X1532031Y2510929D1*
X1952194Y2598360D2*
Y2605604D1*
X1959438Y2620260D1*
X1966681Y2627504D1*
X1981338Y2634748D1*
X2010481D1*
X2024969Y2627504D1*
X2032213Y2620260D1*
X2039625Y2605604D1*
Y2591117D1*
X2032213Y2576460D1*
X2017725Y2554729D1*
X1944781Y2481785D1*
X2046869D1*
X2325781Y2605604D2*
X2340438Y2613017D1*
X2362338Y2634748D1*
Y2481785D1*
X2747975Y2497662D2*
Y2650625D1*
X2675031Y2548706D1*
X2784363D1*
X3143463Y2650625D2*
X3070688D1*
X3063444Y2585093D1*
X3070688Y2592337D1*
X3092588Y2599749D1*
X3114319D1*
X3136219Y2592337D1*
X3150875Y2577849D1*
X3158119Y2555949D1*
Y2541462D1*
X3150875Y2519562D1*
X3136219Y2504906D1*
X3114319Y2497662D1*
X3092588D1*
X3070688Y2504906D1*
X3063444Y2512318D1*
X3056031Y2526806D1*
X3505169Y2650625D2*
X3483438Y2643381D1*
X3476025Y2628893D1*
Y2614237D1*
X3483438Y2599749D1*
X3497925Y2592337D1*
X3527069Y2585093D1*
X3548969Y2577849D1*
X3563457Y2563193D1*
X3570701Y2548706D1*
Y2526806D1*
X3563457Y2512318D1*
X3556213Y2504906D1*
X3534313Y2497662D1*
X3505169D1*
X3483438Y2504906D1*
X3476025Y2512318D1*
X3468781Y2526806D1*
Y2548706D1*
X3476025Y2563193D1*
X3490681Y2577849D1*
X3512413Y2585093D1*
X3541557Y2592337D1*
X3556213Y2599749D1*
X3563457Y2614237D1*
Y2628893D1*
X3556213Y2643381D1*
X3534313Y2650625D1*
X3505169D1*
X3878922Y2497662D2*
X3951866Y2650625D1*
X3849778D1*
X4318213Y2628893D2*
X4310969Y2643381D1*
X4289069Y2650625D1*
X4274581D1*
X4252681Y2643381D1*
X4238025Y2621481D1*
X4230781Y2585093D1*
Y2548706D1*
X4238025Y2519562D1*
X4252681Y2504906D1*
X4274581Y2497662D1*
X4281825D1*
X4303557Y2504906D1*
X4318213Y2519562D1*
X4325457Y2541462D1*
Y2548706D1*
X4318213Y2570606D1*
X4303557Y2585093D1*
X4281825Y2592337D1*
X4274581D1*
X4252681Y2585093D1*
X4238025Y2570606D1*
X4230781Y2548706D1*
X4642311Y2634748D2*
X4722330D1*
X4678699Y2576460D1*
X4700599D1*
X4715086Y2569217D1*
X4722330Y2561973D1*
X4729742Y2540073D1*
Y2525585D1*
X4722330Y2503685D1*
X4707842Y2489029D1*
X4685942Y2481785D1*
X4664042D1*
X4642311Y2489029D1*
X4635067Y2496441D1*
X4627655Y2510929D1*
X5047820Y2598360D2*
Y2605604D1*
X5055064Y2620260D1*
X5062308Y2627504D1*
X5076964Y2634748D1*
X5106108D1*
X5120596Y2627504D1*
X5127840Y2620260D1*
X5135252Y2605604D1*
Y2591117D1*
X5127840Y2576460D1*
X5113352Y2554729D1*
X5040408Y2481785D1*
X5142496D1*
X5421405Y2605604D2*
X5436061Y2613017D1*
X5457961Y2634748D1*
Y2481785D1*
X5843602Y2497662D2*
Y2650625D1*
X5770658Y2548706D1*
X5879990D1*
X6239086Y2650625D2*
X6166311D1*
X6159067Y2585093D1*
X6166311Y2592337D1*
X6188211Y2599749D1*
X6209942D1*
X6231842Y2592337D1*
X6246499Y2577849D1*
X6253742Y2555949D1*
Y2541462D1*
X6246499Y2519562D1*
X6231842Y2504906D1*
X6209942Y2497662D1*
X6188211D1*
X6166311Y2504906D1*
X6159067Y2512318D1*
X6151655Y2526806D1*
X6584919Y2650625D2*
X6563188Y2643381D1*
X6555775Y2628893D1*
Y2614237D1*
X6563188Y2599749D1*
X6577675Y2592337D1*
X6606819Y2585093D1*
X6628719Y2577849D1*
X6643207Y2563193D1*
X6650451Y2548706D1*
Y2526806D1*
X6643207Y2512318D1*
X6635963Y2504906D1*
X6614063Y2497662D1*
X6584919D1*
X6563188Y2504906D1*
X6555775Y2512318D1*
X6548531Y2526806D1*
Y2548706D1*
X6555775Y2563193D1*
X6570431Y2577849D1*
X6592163Y2585093D1*
X6621307Y2592337D1*
X6635963Y2599749D1*
X6643207Y2614237D1*
Y2628893D1*
X6635963Y2643381D1*
X6614063Y2650625D1*
X6584919D1*
X6958672Y2497662D2*
X7031616Y2650625D1*
X6929528D1*
X7397963Y2628893D2*
X7390719Y2643381D1*
X7368819Y2650625D1*
X7354331D1*
X7332431Y2643381D1*
X7317775Y2621481D1*
X7310531Y2585093D1*
Y2548706D1*
X7317775Y2519562D1*
X7332431Y2504906D1*
X7354331Y2497662D1*
X7361575D1*
X7383307Y2504906D1*
X7397963Y2519562D1*
X7405207Y2541462D1*
Y2548706D1*
X7397963Y2570606D1*
X7383307Y2585093D1*
X7361575Y2592337D1*
X7354331D1*
X7332431Y2585093D1*
X7317775Y2570606D1*
X7310531Y2548706D1*
X7722061Y2634748D2*
X7802080D1*
X7758449Y2576460D1*
X7780349D1*
X7794836Y2569217D1*
X7802080Y2561973D1*
X7809492Y2540073D1*
Y2525585D1*
X7802080Y2503685D1*
X7787592Y2489029D1*
X7765692Y2481785D1*
X7743792D1*
X7722061Y2489029D1*
X7714817Y2496441D1*
X7707405Y2510929D1*
X8127567Y2598360D2*
Y2605604D1*
X8134811Y2620260D1*
X8142055Y2627504D1*
X8156711Y2634748D1*
X8185855D1*
X8200342Y2627504D1*
X8207586Y2620260D1*
X8214999Y2605604D1*
Y2591117D1*
X8207586Y2576460D1*
X8193099Y2554729D1*
X8120155Y2481785D1*
X8222242D1*
X8501155Y2605604D2*
X8515811Y2613017D1*
X8537711Y2634748D1*
Y2481785D1*
X8923352Y2497662D2*
Y2650625D1*
X8850408Y2548706D1*
X8959740D1*
X9318836Y2650625D2*
X9246061D1*
X9238817Y2585093D1*
X9246061Y2592337D1*
X9267961Y2599749D1*
X9289692D1*
X9311592Y2592337D1*
X9326249Y2577849D1*
X9333492Y2555949D1*
Y2541462D1*
X9326249Y2519562D1*
X9311592Y2504906D1*
X9289692Y2497662D1*
X9267961D1*
X9246061Y2504906D1*
X9238817Y2512318D1*
X9231405Y2526806D1*
X425419Y967875D2*
X403688Y960631D1*
X396275Y946143D1*
Y931487D1*
X403688Y916999D1*
X418175Y909587D1*
X447319Y902343D1*
X469219Y895099D1*
X483707Y880443D1*
X490951Y865956D1*
Y844056D1*
X483707Y829568D1*
X476463Y822156D1*
X454563Y814912D1*
X425419D1*
X403688Y822156D1*
X396275Y829568D1*
X389031Y844056D1*
Y865956D1*
X396275Y880443D1*
X410931Y895099D1*
X432663Y902343D1*
X461807Y909587D1*
X476463Y916999D1*
X483707Y931487D1*
Y946143D1*
X476463Y960631D1*
X454563Y967875D1*
X425419D1*
X799172Y814912D2*
X872116Y967875D1*
X770028D1*
X1238463Y946143D2*
X1231219Y960631D1*
X1209319Y967875D1*
X1194831D1*
X1172931Y960631D1*
X1158275Y938731D1*
X1151031Y902343D1*
Y865956D1*
X1158275Y836812D1*
X1172931Y822156D1*
X1194831Y814912D1*
X1202075D1*
X1223807Y822156D1*
X1238463Y836812D1*
X1245707Y858712D1*
Y865956D1*
X1238463Y887856D1*
X1223807Y902343D1*
X1202075Y909587D1*
X1194831D1*
X1172931Y902343D1*
X1158275Y887856D1*
X1151031Y865956D1*
X1562561Y951998D2*
X1642580D1*
X1598949Y893710D1*
X1620849D1*
X1635336Y886467D1*
X1642580Y879223D1*
X1649992Y857323D1*
Y842835D1*
X1642580Y820935D1*
X1628092Y806279D1*
X1606192Y799035D1*
X1584292D1*
X1562561Y806279D1*
X1555317Y813691D1*
X1547905Y828179D1*
X1968070Y915610D2*
Y922854D1*
X1975314Y937510D1*
X1982558Y944754D1*
X1997214Y951998D1*
X2026358D1*
X2040846Y944754D1*
X2048090Y937510D1*
X2055502Y922854D1*
Y908367D1*
X2048090Y893710D1*
X2033602Y871979D1*
X1960658Y799035D1*
X2062746D1*
X2341655Y922854D2*
X2356311Y930267D1*
X2378211Y951998D1*
Y799035D1*
X2763852Y814912D2*
Y967875D1*
X2690908Y865956D1*
X2800240D1*
X3159336Y967875D2*
X3086561D1*
X3079317Y902343D1*
X3086561Y909587D1*
X3108461Y916999D1*
X3130192D1*
X3152092Y909587D1*
X3166749Y895099D1*
X3173992Y873199D1*
Y858712D1*
X3166749Y836812D1*
X3152092Y822156D1*
X3130192Y814912D1*
X3108461D1*
X3086561Y822156D1*
X3079317Y829568D1*
X3071905Y844056D1*
X3505169Y967875D2*
X3483438Y960631D1*
X3476025Y946143D1*
Y931487D1*
X3483438Y916999D1*
X3497925Y909587D1*
X3527069Y902343D1*
X3548969Y895099D1*
X3563457Y880443D1*
X3570701Y865956D1*
Y844056D1*
X3563457Y829568D1*
X3556213Y822156D1*
X3534313Y814912D1*
X3505169D1*
X3483438Y822156D1*
X3476025Y829568D1*
X3468781Y844056D1*
Y865956D1*
X3476025Y880443D1*
X3490681Y895099D1*
X3512413Y902343D1*
X3541557Y909587D1*
X3556213Y916999D1*
X3563457Y931487D1*
Y946143D1*
X3556213Y960631D1*
X3534313Y967875D1*
X3505169D1*
X3878922Y814912D2*
X3951866Y967875D1*
X3849778D1*
X4318213Y946143D2*
X4310969Y960631D1*
X4289069Y967875D1*
X4274581D1*
X4252681Y960631D1*
X4238025Y938731D1*
X4230781Y902343D1*
Y865956D1*
X4238025Y836812D1*
X4252681Y822156D1*
X4274581Y814912D1*
X4281825D1*
X4303557Y822156D1*
X4318213Y836812D1*
X4325457Y858712D1*
Y865956D1*
X4318213Y887856D1*
X4303557Y902343D1*
X4281825Y909587D1*
X4274581D1*
X4252681Y902343D1*
X4238025Y887856D1*
X4230781Y865956D1*
X4642311Y951998D2*
X4722330D1*
X4678699Y893710D1*
X4700599D1*
X4715086Y886467D1*
X4722330Y879223D1*
X4729742Y857323D1*
Y842835D1*
X4722330Y820935D1*
X4707842Y806279D1*
X4685942Y799035D1*
X4664042D1*
X4642311Y806279D1*
X4635067Y813691D1*
X4627655Y828179D1*
X5047820Y915610D2*
Y922854D1*
X5055064Y937510D1*
X5062308Y944754D1*
X5076964Y951998D1*
X5106108D1*
X5120596Y944754D1*
X5127840Y937510D1*
X5135252Y922854D1*
Y908367D1*
X5127840Y893710D1*
X5113352Y871979D1*
X5040408Y799035D1*
X5142496D1*
X5421405Y922854D2*
X5436061Y930267D1*
X5457961Y951998D1*
Y799035D1*
X5843602Y814912D2*
Y967875D1*
X5770658Y865956D1*
X5879990D1*
X6239086Y967875D2*
X6166311D1*
X6159067Y902343D1*
X6166311Y909587D1*
X6188211Y916999D1*
X6209942D1*
X6231842Y909587D1*
X6246499Y895099D1*
X6253742Y873199D1*
Y858712D1*
X6246499Y836812D1*
X6231842Y822156D1*
X6209942Y814912D1*
X6188211D1*
X6166311Y822156D1*
X6159067Y829568D1*
X6151655Y844056D1*
X6584919Y967875D2*
X6563188Y960631D1*
X6555775Y946143D1*
Y931487D1*
X6563188Y916999D1*
X6577675Y909587D1*
X6606819Y902343D1*
X6628719Y895099D1*
X6643207Y880443D1*
X6650451Y865956D1*
Y844056D1*
X6643207Y829568D1*
X6635963Y822156D1*
X6614063Y814912D1*
X6584919D1*
X6563188Y822156D1*
X6555775Y829568D1*
X6548531Y844056D1*
Y865956D1*
X6555775Y880443D1*
X6570431Y895099D1*
X6592163Y902343D1*
X6621307Y909587D1*
X6635963Y916999D1*
X6643207Y931487D1*
Y946143D1*
X6635963Y960631D1*
X6614063Y967875D1*
X6584919D1*
X6958672Y814912D2*
X7031616Y967875D1*
X6929528D1*
X7397963Y946143D2*
X7390719Y960631D1*
X7368819Y967875D1*
X7354331D1*
X7332431Y960631D1*
X7317775Y938731D1*
X7310531Y902343D1*
Y865956D1*
X7317775Y836812D1*
X7332431Y822156D1*
X7354331Y814912D1*
X7361575D1*
X7383307Y822156D1*
X7397963Y836812D1*
X7405207Y858712D1*
Y865956D1*
X7397963Y887856D1*
X7383307Y902343D1*
X7361575Y909587D1*
X7354331D1*
X7332431Y902343D1*
X7317775Y887856D1*
X7310531Y865956D1*
X7722061Y951998D2*
X7802080D1*
X7758449Y893710D1*
X7780349D1*
X7794836Y886467D1*
X7802080Y879223D1*
X7809492Y857323D1*
Y842835D1*
X7802080Y820935D1*
X7787592Y806279D1*
X7765692Y799035D1*
X7743792D1*
X7722061Y806279D1*
X7714817Y813691D1*
X7707405Y828179D1*
X8127567Y915610D2*
Y922854D1*
X8134811Y937510D1*
X8142055Y944754D1*
X8156711Y951998D1*
X8185855D1*
X8200342Y944754D1*
X8207586Y937510D1*
X8214999Y922854D1*
Y908367D1*
X8207586Y893710D1*
X8193099Y871979D1*
X8120155Y799035D1*
X8222242D1*
X8501155Y922854D2*
X8515811Y930267D1*
X8537711Y951998D1*
Y799035D1*
X8923352Y814912D2*
Y967875D1*
X8850408Y865956D1*
X8959740D1*
X9318836Y967875D2*
X9246061D1*
X9238817Y902343D1*
X9246061Y909587D1*
X9267961Y916999D1*
X9289692D1*
X9311592Y909587D1*
X9326249Y895099D1*
X9333492Y873199D1*
Y858712D1*
X9326249Y836812D1*
X9311592Y822156D1*
X9289692Y814912D1*
X9267961D1*
X9246061Y822156D1*
X9238817Y829568D1*
X9231405Y844056D1*
X234919Y2349001D2*
X213188Y2341758D1*
X205775Y2327270D1*
Y2312614D1*
X213188Y2298126D1*
X227675Y2290714D1*
X256819Y2283470D1*
X278719Y2276226D1*
X293207Y2261570D1*
X300451Y2247082D1*
Y2225182D1*
X293207Y2210695D1*
X285963Y2203282D1*
X264063Y2196038D1*
X234919D1*
X213188Y2203282D1*
X205775Y2210695D1*
X198531Y2225182D1*
Y2247082D1*
X205775Y2261570D1*
X220431Y2276226D1*
X242163Y2283470D1*
X271307Y2290714D1*
X285963Y2298126D1*
X293207Y2312614D1*
Y2327270D1*
X285963Y2341758D1*
X264063Y2349001D1*
X234919D1*
X1516155Y1891228D2*
X1530811Y1898640D1*
X1552711Y1920371D1*
Y1767408D1*
X1838296Y2364878D2*
X1816564Y2357634D1*
X1809152Y2343147D1*
Y2328490D1*
X1816564Y2314003D1*
X1831052Y2306590D1*
X1860196Y2299347D1*
X1882096Y2292103D1*
X1896583Y2277447D1*
X1903827Y2262959D1*
Y2241059D1*
X1896583Y2226571D1*
X1889340Y2219159D1*
X1867440Y2211915D1*
X1838296D1*
X1816564Y2219159D1*
X1809152Y2226571D1*
X1801908Y2241059D1*
Y2262959D1*
X1809152Y2277447D1*
X1823808Y2292103D1*
X1845540Y2299347D1*
X1874683Y2306590D1*
X1889340Y2314003D1*
X1896583Y2328490D1*
Y2343147D1*
X1889340Y2357634D1*
X1867440Y2364878D1*
X1838296D1*
X3071905Y1938851D2*
X3086561Y1946263D1*
X3108461Y1967995D1*
Y1815032D1*
X3394046Y2380751D2*
X3372314Y2373508D1*
X3364902Y2359020D1*
Y2344364D1*
X3372314Y2329876D1*
X3386802Y2322464D1*
X3415946Y2315220D1*
X3437846Y2307976D1*
X3452333Y2293320D1*
X3459577Y2278832D1*
Y2256932D1*
X3452333Y2242445D1*
X3445090Y2235032D1*
X3423190Y2227788D1*
X3394046D1*
X3372314Y2235032D1*
X3364902Y2242445D1*
X3357658Y2256932D1*
Y2278832D1*
X3364902Y2293320D1*
X3379558Y2307976D1*
X3401290Y2315220D1*
X3430433Y2322464D1*
X3445090Y2329876D1*
X3452333Y2344364D1*
Y2359020D1*
X3445090Y2373508D1*
X3423190Y2380751D1*
X3394046D1*
X4627655Y1954728D2*
X4642311Y1962140D1*
X4664211Y1983871D1*
Y1830908D1*
X4965669Y2364878D2*
X4943938Y2357634D1*
X4936525Y2343147D1*
Y2328490D1*
X4943938Y2314003D1*
X4958425Y2306590D1*
X4987569Y2299347D1*
X5009469Y2292103D1*
X5023957Y2277447D1*
X5031201Y2262959D1*
Y2241059D1*
X5023957Y2226571D1*
X5016713Y2219159D1*
X4994813Y2211915D1*
X4965669D1*
X4943938Y2219159D1*
X4936525Y2226571D1*
X4929281Y2241059D1*
Y2262959D1*
X4936525Y2277447D1*
X4951181Y2292103D1*
X4972913Y2299347D1*
X5002057Y2306590D1*
X5016713Y2314003D1*
X5023957Y2328490D1*
Y2343147D1*
X5016713Y2357634D1*
X4994813Y2364878D1*
X4965669D1*
X6199278Y1938851D2*
X6213934Y1946263D1*
X6235834Y1967995D1*
Y1815032D1*
X6521419Y2364878D2*
X6499688Y2357634D1*
X6492275Y2343147D1*
Y2328490D1*
X6499688Y2314003D1*
X6514175Y2306590D1*
X6543319Y2299347D1*
X6565219Y2292103D1*
X6579707Y2277447D1*
X6586951Y2262959D1*
Y2241059D1*
X6579707Y2226571D1*
X6572463Y2219159D1*
X6550563Y2211915D1*
X6521419D1*
X6499688Y2219159D1*
X6492275Y2226571D1*
X6485031Y2241059D1*
Y2262959D1*
X6492275Y2277447D1*
X6506931Y2292103D1*
X6528663Y2299347D1*
X6557807Y2306590D1*
X6572463Y2314003D1*
X6579707Y2328490D1*
Y2343147D1*
X6572463Y2357634D1*
X6550563Y2364878D1*
X6521419D1*
X7770905Y1938851D2*
X7785561Y1946263D1*
X7807461Y1967995D1*
Y1815032D1*
X8108919Y2380751D2*
X8087188Y2373508D1*
X8079775Y2359020D1*
Y2344364D1*
X8087188Y2329876D1*
X8101675Y2322464D1*
X8130819Y2315220D1*
X8152719Y2307976D1*
X8167207Y2293320D1*
X8174451Y2278832D1*
Y2256932D1*
X8167207Y2242445D1*
X8159963Y2235032D1*
X8138063Y2227788D1*
X8108919D1*
X8087188Y2235032D1*
X8079775Y2242445D1*
X8072531Y2256932D1*
Y2278832D1*
X8079775Y2293320D1*
X8094431Y2307976D1*
X8116163Y2315220D1*
X8145307Y2322464D1*
X8159963Y2329876D1*
X8167207Y2344364D1*
Y2359020D1*
X8159963Y2373508D1*
X8138063Y2380751D1*
X8108919D1*
X9342528Y1954728D2*
X9357184Y1962140D1*
X9379084Y1983871D1*
Y1830908D1*
X1018844Y1436833D2*
D28*
X1006771Y1460979D1*
X970271Y1473052D1*
X946125D1*
X909625Y1460979D1*
X885198Y1424479D1*
X873125Y1363833D1*
Y1303187D1*
X885198Y1254614D1*
X909625Y1230187D1*
X946125Y1218114D1*
X958198D1*
X994417Y1230187D1*
X1018844Y1254614D1*
X1030917Y1291114D1*
Y1303187D1*
X1018844Y1339687D1*
X994417Y1363833D1*
X958198Y1375906D1*
X946125D1*
X909625Y1363833D1*
X885198Y1339687D1*
X873125Y1303187D1*
X2558720Y1758799D2*
X2437428D1*
X2425355Y1649580D1*
X2437428Y1661653D1*
X2473928Y1674007D1*
X2510147D1*
X2546647Y1661653D1*
X2571074Y1637507D1*
X2583147Y1601007D1*
Y1576861D1*
X2571074Y1540361D1*
X2546647Y1515934D1*
X2510147Y1503861D1*
X2473928D1*
X2437428Y1515934D1*
X2425355Y1528288D1*
X2413001Y1552434D1*
X4090324Y1218111D2*
Y1473049D1*
X3968751Y1303184D1*
X4150970D1*
X5580678Y1711176D2*
X5714043D1*
X5641324Y1614030D1*
X5677824D1*
X5701970Y1601957D1*
X5714043Y1589883D1*
X5726397Y1553383D1*
Y1529237D1*
X5714043Y1492737D1*
X5689897Y1468310D1*
X5653397Y1456237D1*
X5616897D1*
X5580678Y1468310D1*
X5568605Y1480664D1*
X5556251Y1504810D1*
X7124355Y1460030D2*
Y1472103D1*
X7136428Y1496530D1*
X7148501Y1508603D1*
X7172928Y1520676D1*
X7221501D1*
X7245647Y1508603D1*
X7257720Y1496530D1*
X7270074Y1472103D1*
Y1447957D1*
X7257720Y1423530D1*
X7233574Y1387310D1*
X7112001Y1265737D1*
X7282147D1*
X8731251Y1662603D2*
X8755678Y1674957D1*
X8792178Y1711176D1*
Y1456237D1*
M02*
