M48
METRIC,0000.00
T01C0.4
T02C0.9
T03C1.25
T04C3.25
%
T01
X+008652Y+002810
X+009017Y+001778
X+008414Y+000603
X+007414Y+000905
X+007207Y+000889
X+006509Y+000603
X+005334Y+000603
X+004270Y+000905
X+004064Y+000889
X+003429Y+000603
X+002254Y+000603
X+001142Y+000905
X+000936Y+000889
X+000349Y+000603
X+001016Y+002794
X+002492Y+002810
X+002746Y+001778
X+004096Y+002794
X+005572Y+002810
X+005874Y+001778
X+007175Y+002794
T02
X+009223Y+002032
X+008969Y+002032
X+008715Y+002032
X+008461Y+002032
X+008588Y+002286
X+008842Y+002286
X+009096Y+002286
X+008334Y+002286
X+007652Y+002032
X+007398Y+002032
X+007144Y+002032
X+006890Y+002032
X+007017Y+002286
X+007271Y+002286
X+007525Y+002286
X+006763Y+002286
X+006080Y+002032
X+005826Y+002032
X+005572Y+002032
X+005318Y+002032
X+005445Y+002286
X+005699Y+002286
X+005953Y+002286
X+005191Y+002286
X+004509Y+002032
X+004254Y+002032
X+004000Y+002032
X+003747Y+002032
X+003874Y+002286
X+004127Y+002286
X+004381Y+002286
X+003619Y+002286
X+002952Y+002032
X+002698Y+002032
X+002444Y+002032
X+002190Y+002032
X+002317Y+002286
X+002571Y+002286
X+002825Y+002286
X+002063Y+002286
X+001380Y+002032
X+001126Y+002032
X+000872Y+002032
X+000618Y+002032
X+000745Y+002286
X+000999Y+002286
X+001253Y+002286
X+000491Y+002286
T03
X+006604Y+003048
X+006985Y+003048
X+007366Y+003048
X+007747Y+003048
X+008128Y+003048
X+008509Y+003048
X+008890Y+003048
X+009271Y+003048
X+009271Y+000381
X+008890Y+000381
X+008509Y+000381
X+008128Y+000381
X+007747Y+000381
X+007366Y+000381
X+006985Y+000381
X+006604Y+000381
X+006191Y+000381
X+005810Y+000381
X+005429Y+000381
X+005048Y+000381
X+004667Y+000381
X+004286Y+000381
X+003905Y+000381
X+003524Y+000381
X+003112Y+000381
X+002730Y+000381
X+002350Y+000381
X+001968Y+000381
X+001588Y+000381
X+001206Y+000381
X+000825Y+000381
X+000444Y+000381
X+000444Y+003048
X+000825Y+003048
X+001206Y+003048
X+001588Y+003048
X+001968Y+003048
X+002350Y+003048
X+002730Y+003048
X+003112Y+003048
X+003524Y+003048
X+003905Y+003048
X+004286Y+003048
X+004667Y+003048
X+005048Y+003048
X+005429Y+003048
X+005810Y+003048
X+006191Y+003048
T04
X+009350Y+001397
X+008207Y+001397
X+007779Y+001397
X+006636Y+001397
X+006207Y+001397
X+005064Y+001397
X+004636Y+001397
X+003492Y+001397
X+003079Y+001397
X+001936Y+001397
X+001507Y+001397
X+000364Y+001397
T00
M30
