G04 DipTrace 3.3.1.3*
G04 patch_panel_RG-45_5e_cat_24-port_Bottom.gbl*
%MOMM*%
G04 #@! TF.FileFunction,Copper,L2,Bot*
G04 #@! TF.Part,Single*
G04 #@! TA.AperFunction,Conductor*
%ADD13C,0.3*%
%ADD14C,0.4*%
G04 #@! TA.AperFunction,ComponentPad*
%ADD15C,1.7*%
%ADD16C,1.5*%
G04 #@! TA.AperFunction,ViaPad*
%ADD17C,0.8*%
%FSLAX35Y35*%
G04*
G71*
G90*
G75*
G01*
G04 Bottom*
%LPD*%
X7366000Y3048000D2*
D13*
Y3270250D1*
X8128000D1*
X8588373Y2286000D2*
X8175623Y2619373D1*
X8112123D1*
Y2492373D1*
X7715250D1*
X8112123Y2619373D2*
X7604123Y2619377D1*
X8604250Y3317873D2*
X9302750D1*
Y3190873D1*
Y3048000D1*
X9271000D1*
X9302750Y3190873D2*
X8604250D1*
X8715373Y2032000D2*
X8890000Y1905000D1*
X9048750D1*
X9096373Y1968500D1*
Y2095500D1*
X9001127Y2174877D1*
X8969373Y2206630D1*
Y2365377D1*
X8874127Y2413000D1*
X8843347Y2428390D1*
X8810627Y2444750D1*
X8604250Y2571750D1*
X9271000Y3048000D1*
X8715373Y2032000D2*
Y1841500D1*
Y1714500D1*
X8334373D1*
X8397873Y1841500D2*
X8715373D1*
X9525000Y2444750D2*
X9191623D1*
Y2571750D1*
X9525000D1*
X9191623D2*
Y2621110D1*
Y2698750D1*
X9525000D1*
X9191623Y2621110D2*
X8843347Y2428390D1*
X8715373Y2032000D2*
X8842373Y1793873D1*
Y1635127D1*
Y1524060D1*
X9059757D1*
X9185567Y1651930D2*
X8852190D1*
X8842373Y1635127D1*
Y1524060D2*
Y1392070D1*
X9052220D1*
X8842373D2*
Y1254723D1*
X9062360D1*
X8509000Y3048000D2*
Y3254373D1*
X9223373D1*
X8128000Y3048000D2*
Y3206750D1*
X7493000D1*
X8651873Y2809873D2*
D14*
X8350250D1*
X8128000Y3048000D1*
X9096373Y2286000D2*
D13*
X9191623Y2381250D1*
X9588500D1*
Y2508250D1*
X9255127D1*
X9588500D2*
Y2635250D1*
X9255127D1*
X9588500D2*
Y2762250D1*
X9239250D1*
X7143750Y2032000D2*
X7223127Y1952623D1*
Y1444623D1*
X7588250Y1079500D1*
X7635873D1*
X8064500D1*
X7635873D2*
Y952500D1*
X8064500D1*
X7413627Y904873D2*
D14*
X7125687Y1422777D1*
Y2013937D1*
X7143750Y2032000D1*
X4286250Y3048000D2*
D13*
Y3270250D1*
X5048250D1*
X5445123Y2286000D2*
X5032373Y2619373D1*
X4968873D1*
Y2492373D1*
X4572000D1*
X4968873Y2619373D2*
X4460873Y2619377D1*
X7747000Y3048000D2*
X8715373Y2413000D1*
Y2190750D1*
X8969373Y2032000D1*
X9017000Y1778000D2*
Y1723617D1*
X9271000D1*
Y1619250D1*
X9223373Y1587500D1*
X9175750Y1555750D1*
X9112250Y1476373D1*
Y1456563D1*
X8919570D1*
X9223373Y1587500D2*
X8926207Y1588593D1*
X9112250Y1456563D2*
Y1319837D1*
X8904047D1*
X9017000Y1723617D2*
X8903197Y1723613D1*
X8334373Y2286000D2*
X8175627Y2428877D1*
X7667627D1*
X7604127Y2555873D1*
X8032750D1*
X8334373Y2286000D2*
Y1905000D1*
Y1778000D1*
X8651873D1*
Y1905000D2*
X8334373D1*
X7175500Y2794000D2*
D14*
X6985000Y3048000D1*
X8128000Y381000D2*
X8413750Y603250D1*
X8128000Y381000D2*
D13*
Y254000D1*
X7842250D1*
X8128000D2*
Y127000D1*
X7397750D1*
X7651750Y2032000D2*
X7858127Y1968500D1*
Y1825627D1*
Y1698627D1*
X7556500D1*
X7858127Y1825627D2*
X7556500D1*
X6826250Y2555877D2*
X7270750D1*
Y2286000D1*
Y2278800D1*
X7016177Y2159000D1*
X6826253D1*
X6715127Y2047873D1*
Y1873250D1*
X6778627D1*
X6715127D2*
X6461123D1*
Y1746250D1*
X6778627D1*
X6461123D2*
Y1619250D1*
X6556373D1*
X7794623Y1762123D2*
X7493000D1*
Y1889127D1*
X7397750Y2032000D1*
X7493000Y1889127D2*
X7794627D1*
X7397750Y2032000D2*
X7297240Y1931490D1*
Y1465760D1*
X7620000Y1143000D1*
X8143873D1*
Y1016000D1*
X7699373D1*
X7397750Y2032000D2*
X7286627Y2111373D1*
X7232000Y2144000D1*
X7136000Y2152000D1*
X7051627Y2114500D1*
X7016750Y2041570D1*
D14*
Y984250D1*
X7112000Y889000D1*
X7207250D1*
X6762750Y2286000D2*
D13*
X6604000Y2190750D1*
Y2111373D1*
X6381750D1*
X6604000D2*
Y1984373D1*
X6381750D1*
X7366000Y381000D2*
Y190500D1*
X8064500D1*
X7016750Y2286000D2*
Y2492373D1*
X7207250D1*
X7016750D2*
X6762750D1*
Y2619373D1*
X7223123D1*
X7016750Y2286000D2*
X6905623Y2397127D1*
X6778627Y2428877D1*
X6683373Y2397127D1*
X6318250Y2238373D1*
Y2174873D1*
X6540500D1*
X6318250D2*
Y2047873D1*
X6540500D1*
X6985000Y381000D2*
D14*
X6508750Y603250D1*
X6540500Y1682750D2*
D13*
X6858000D1*
Y1809750D1*
Y2032000D1*
X6889750D1*
X6858000Y1809750D2*
X6540500D1*
X5524500Y3317873D2*
X6223000D1*
Y3190873D1*
Y3048000D1*
X6191250D1*
X6223000Y3190873D2*
X5524500D1*
X5572123Y2032000D2*
X5746750Y1905000D1*
X5905500D1*
X5953123Y1968500D1*
Y2095500D1*
X5857877Y2174877D1*
X5826123Y2206630D1*
Y2365377D1*
X5730877Y2413000D1*
X5700097Y2428390D1*
X5667377Y2444750D1*
X5461000Y2571750D1*
X6191250Y3048000D1*
X5572123Y2032000D2*
Y1841500D1*
Y1714500D1*
X5191123D1*
X5254623Y1841500D2*
X5572123D1*
X6381750Y2444750D2*
X6048373D1*
Y2571750D1*
X6381750D1*
X6048373D2*
Y2621110D1*
Y2698750D1*
X6381750D1*
X6048373Y2621110D2*
X5700097Y2428390D1*
X5572123Y2032000D2*
X5699123Y1793873D1*
Y1635127D1*
Y1524060D1*
X5916507D1*
X6042317Y1651930D2*
X5708940D1*
X5699123Y1635127D1*
Y1524060D2*
Y1392070D1*
X5908970D1*
X5699123D2*
Y1254723D1*
X5919110D1*
X5429250Y3048000D2*
Y3254373D1*
X6143623D1*
X5048250Y3048000D2*
Y3206750D1*
X4413250D1*
X5572123Y2809873D2*
D14*
X5270500D1*
X5048250Y3048000D1*
X5953123Y2286000D2*
D13*
X6048373Y2381250D1*
X6445250D1*
Y2508250D1*
X6111877D1*
X6445250D2*
Y2635250D1*
X6111877D1*
X6445250D2*
Y2762250D1*
X6096000D1*
X4000500Y2032000D2*
X4079877Y1952623D1*
Y1444623D1*
X4445000Y1079500D1*
X4492623D1*
X4921250D1*
X4492623D2*
Y952500D1*
X4921250D1*
X4270377Y904873D2*
D14*
X3982437Y1422777D1*
Y2013937D1*
X4000500Y2032000D1*
X4667250Y3048000D2*
D13*
X5572123Y2413000D1*
Y2190750D1*
X5826123Y2032000D1*
X5873750Y1778000D2*
Y1723617D1*
X6127750D1*
Y1619250D1*
X6080123Y1587500D1*
X6032500Y1555750D1*
X5969000Y1476373D1*
Y1456563D1*
X5776320D1*
X6080123Y1587500D2*
X5782957Y1588593D1*
X5969000Y1456563D2*
Y1319837D1*
X5760797D1*
X5873750Y1723617D2*
X5759947Y1723613D1*
X5191123Y2286000D2*
X5032377Y2428877D1*
X4524377D1*
X4460877Y2555873D1*
X4889500D1*
X5191123Y2286000D2*
Y1905000D1*
Y1778000D1*
X5508623D1*
Y1905000D2*
X5191123D1*
X4095750Y2794000D2*
D14*
X3905250Y3048000D1*
X5048250Y381000D2*
X5334000Y603250D1*
X5048250Y381000D2*
D13*
Y254000D1*
X4762500D1*
X5048250D2*
Y127000D1*
X4318000D1*
X4508500Y2032000D2*
X4714877Y1968500D1*
Y1825627D1*
Y1698627D1*
X4413250D1*
X4714877Y1825627D2*
X4413250D1*
X3683000Y2555877D2*
X4127500D1*
Y2286000D1*
Y2278800D1*
X3872927Y2159000D1*
X3683003D1*
X3571877Y2047873D1*
Y1873250D1*
X3635377D1*
X3571877D2*
X3317877D1*
Y1746250D1*
X3635377D1*
X3317877D2*
Y1619250D1*
X3413127D1*
X4651373Y1762123D2*
X4349750D1*
Y1889127D1*
X4254500Y2032000D1*
X4349750Y1889127D2*
X4651377D1*
X4254500Y2032000D2*
X4153990Y1931490D1*
Y1465760D1*
X4476750Y1143000D1*
X5000623D1*
Y1016000D1*
X4556123D1*
X4254500Y2032000D2*
X4143377Y2111373D1*
X4088750Y2144000D1*
X3992750Y2152000D1*
X3908377Y2114500D1*
X3873500Y2041570D1*
D14*
Y984250D1*
X3968750Y889000D1*
X4064000D1*
X3619500Y2286000D2*
D13*
X3460750Y2190750D1*
Y2111373D1*
X3238500D1*
X3460750D2*
Y1984373D1*
X3238500D1*
X4286250Y381000D2*
Y190500D1*
X4984750D1*
X3873500Y2286000D2*
Y2492373D1*
X4064000D1*
X3873500D2*
X3619500D1*
Y2619373D1*
X4079873D1*
X3873500Y2286000D2*
X3762373Y2397127D1*
X3635377Y2428877D1*
X3569820Y2394870D1*
X3174127Y2237997D1*
Y2174873D1*
X3397250D1*
X3174127D2*
Y2047873D1*
X3397250D1*
X3905250Y381000D2*
D14*
X3429000Y603250D1*
X3397250Y1682750D2*
D13*
X3714750D1*
Y1809750D1*
Y2032000D1*
X3746500D1*
X3714750Y1809750D2*
X3397250D1*
X1206500Y3048000D2*
Y3270250D1*
X1968500D1*
X2316873Y2286000D2*
X1904123Y2619373D1*
X1840623D1*
Y2492373D1*
X1443750D1*
X1840623Y2619373D2*
X1332623Y2619377D1*
X2444750Y3317873D2*
X3143250D1*
Y3190873D1*
Y3048000D1*
X3111500D1*
X3143250Y3190873D2*
X2444750D1*
X2443873Y2032000D2*
X2618500Y1905000D1*
X2777250D1*
X2824873Y1968500D1*
Y2095500D1*
X2729627Y2174877D1*
X2697873Y2206630D1*
Y2365377D1*
X2602627Y2413000D1*
X2571847Y2428390D1*
X2539127Y2444750D1*
X2332750Y2571750D1*
X3111500Y3048000D1*
X2443873Y2032000D2*
Y1841500D1*
Y1714500D1*
X2062873D1*
X2126373Y1841500D2*
X2443873D1*
X3238500Y2444750D2*
X2920123D1*
Y2571750D1*
X3238500D1*
X2920123D2*
Y2621110D1*
Y2698750D1*
X3238500D1*
X2920123Y2621110D2*
X2571847Y2428390D1*
X2443873Y2032000D2*
X2570873Y1793873D1*
Y1635127D1*
Y1524060D1*
X2788257D1*
X2914067Y1651930D2*
X2580690D1*
X2570873Y1635127D1*
Y1524060D2*
Y1392070D1*
X2780720D1*
X2570873D2*
Y1254723D1*
X2790860D1*
X2349500Y3048000D2*
Y3254373D1*
X3063873D1*
X1968500Y3048000D2*
Y3206750D1*
X1333500D1*
X2492373Y2809873D2*
D14*
X2190750D1*
X1968500Y3048000D1*
X2824873Y2286000D2*
D13*
X2920123Y2381250D1*
X3314000D1*
Y2508250D1*
X3032127D1*
X3314000D2*
Y2635250D1*
X3032127D1*
X3314000D2*
Y2762250D1*
X3016250D1*
X872250Y2032000D2*
X951627Y1952623D1*
Y1444623D1*
X1316750Y1079500D1*
X1364373D1*
X1793000D1*
X1364373D2*
Y952500D1*
X1793000D1*
X1142127Y904873D2*
D14*
X854187Y1422777D1*
Y2013937D1*
X872250Y2032000D1*
X1587500Y3048000D2*
D13*
X2443873Y2413000D1*
Y2190750D1*
X2697873Y2032000D1*
X2745500Y1778000D2*
Y1723617D1*
X2999500D1*
Y1619250D1*
X2951873Y1587500D1*
X2904250Y1555750D1*
X2840750Y1476373D1*
Y1456563D1*
X2648070D1*
X2951873Y1587500D2*
X2654707Y1588593D1*
X2840750Y1456563D2*
Y1319837D1*
X2632547D1*
X2745500Y1723617D2*
X2631697Y1723613D1*
X2062873Y2286000D2*
X1904127Y2428877D1*
X1396127D1*
X1332627Y2555873D1*
X1761250D1*
X2062873Y2286000D2*
Y1905000D1*
Y1778000D1*
X2380373D1*
Y1905000D2*
X2062873D1*
X1016000Y2794000D2*
D14*
X825500Y3048000D1*
X1968500Y381000D2*
X2254250Y603250D1*
X1968500Y381000D2*
D13*
Y254000D1*
X1682750D1*
X1968500D2*
Y127000D1*
X1238250D1*
X1380250Y2032000D2*
X1586627Y1968500D1*
Y1825627D1*
Y1698627D1*
X1285000D1*
X1586627Y1825627D2*
X1285000D1*
X554750Y2555877D2*
X999250D1*
Y2286000D1*
Y2278800D1*
X744677Y2159000D1*
X554753D1*
X443627Y2047873D1*
Y1873250D1*
X507127D1*
X443627D2*
X239750D1*
Y1746250D1*
X507127D1*
X239750D2*
Y1619250D1*
X301627D1*
X1523123Y1762123D2*
X1221500D1*
Y1889127D1*
X1126250Y2032000D1*
X1221500Y1889127D2*
X1523127D1*
X1126250Y2032000D2*
X1025740Y1931490D1*
Y1465760D1*
X1348500Y1143000D1*
X1872373D1*
Y1016000D1*
X1427873D1*
X1126250Y2032000D2*
X1015127Y2111373D1*
X960500Y2144000D1*
X864500Y2152000D1*
X780127Y2114500D1*
X745250Y2041570D1*
D14*
Y984250D1*
X840500Y889000D1*
X935750D1*
X491250Y2286000D2*
D13*
X357803Y2189183D1*
Y2111373D1*
X142873D1*
X357803D2*
X360880D1*
Y1984373D1*
X142873D1*
X1206500Y381000D2*
Y190500D1*
X1905000D1*
X745250Y2286000D2*
Y2492373D1*
X935750D1*
X745250D2*
X491250D1*
Y2619373D1*
X951623D1*
X745250Y2286000D2*
X634123Y2397127D1*
X507127Y2428877D1*
X396000D1*
X79377Y2301877D1*
Y2174873D1*
X269000D1*
X79377D2*
Y2047873D1*
X269000D1*
X825500Y381000D2*
D14*
X349250Y603250D1*
X317500Y1682750D2*
D13*
X586500D1*
Y1809750D1*
Y2032000D1*
X618250D1*
X586500Y1809750D2*
X317500D1*
D17*
X8651873Y2809873D3*
X9017000Y1778000D3*
X7175500Y2794000D3*
X8413750Y603250D3*
X7413627Y904873D3*
X7207250Y889000D3*
X6508750Y603250D3*
X5572123Y2809873D3*
X5873750Y1778000D3*
X4095750Y2794000D3*
X5334000Y603250D3*
X4270377Y904873D3*
X4064000Y889000D3*
X3429000Y603250D3*
X2492373Y2809873D3*
X2745500Y1778000D3*
X1016000Y2794000D3*
X2254250Y603250D3*
X1142127Y904873D3*
X935750Y889000D3*
X349250Y603250D3*
D15*
X6604000Y3048000D3*
X6985000D3*
X7366000D3*
X7747000D3*
X8128000D3*
X8509000D3*
X8890000D3*
X9271000D3*
Y381000D3*
X8890000D3*
X8509000D3*
X8128000D3*
X7747000D3*
X7366000D3*
X6985000D3*
X6604000D3*
D16*
X9223373Y2032000D3*
X9096373Y2286000D3*
X8969373Y2032000D3*
X8842373Y2286000D3*
X8715373Y2032000D3*
X8588373Y2286000D3*
X8461373Y2032000D3*
X8334373Y2286000D3*
X7651750Y2032000D3*
X7524750Y2286000D3*
X7397750Y2032000D3*
X7270750Y2286000D3*
X7143750Y2032000D3*
X7016750Y2286000D3*
X6889750Y2032000D3*
X6762750Y2286000D3*
D15*
X3524250Y3048000D3*
X3905250D3*
X4286250D3*
X4667250D3*
X5048250D3*
X5429250D3*
X5810250D3*
X6191250D3*
Y381000D3*
X5810250D3*
X5429250D3*
X5048250D3*
X4667250D3*
X4286250D3*
X3905250D3*
X3524250D3*
D16*
X6080123Y2032000D3*
X5953123Y2286000D3*
X5826123Y2032000D3*
X5699123Y2286000D3*
X5572123Y2032000D3*
X5445123Y2286000D3*
X5318123Y2032000D3*
X5191123Y2286000D3*
X4508500Y2032000D3*
X4381500Y2286000D3*
X4254500Y2032000D3*
X4127500Y2286000D3*
X4000500Y2032000D3*
X3873500Y2286000D3*
X3746500Y2032000D3*
X3619500Y2286000D3*
D15*
X444500Y3048000D3*
X825500D3*
X1206500D3*
X1587500D3*
X1968500D3*
X2349500D3*
X2730500D3*
X3111500D3*
Y381000D3*
X2730500D3*
X2349500D3*
X1968500D3*
X1587500D3*
X1206500D3*
X825500D3*
X444500D3*
D16*
X2951873Y2032000D3*
X2824873Y2286000D3*
X2697873Y2032000D3*
X2570873Y2286000D3*
X2443873Y2032000D3*
X2316873Y2286000D3*
X2189873Y2032000D3*
X2062873Y2286000D3*
X1380250Y2032000D3*
X1253250Y2286000D3*
X1126250Y2032000D3*
X999250Y2286000D3*
X872250Y2032000D3*
X745250Y2286000D3*
X618250Y2032000D3*
X491250Y2286000D3*
M02*
