G04 DipTrace 3.3.1.3*
G04 patch_panel_RG-45_5e_cat_24-port_BottomMask.gbs*
%MOMM*%
G04 #@! TF.FileFunction,Soldermask,Bot*
G04 #@! TF.Part,Single*
%ADD15C,1.7*%
%ADD18C,3.25*%
%ADD25C,1.9*%
%FSLAX35Y35*%
G04*
G71*
G90*
G75*
G01*
G04 BotMask*
%LPD*%
D25*
X6604000Y3048000D3*
X6985000D3*
X7366000D3*
X7747000D3*
X8128000D3*
X8509000D3*
X8890000D3*
X9271000D3*
Y381000D3*
X8890000D3*
X8509000D3*
X8128000D3*
X7747000D3*
X7366000D3*
X6985000D3*
X6604000D3*
D15*
X9223373Y2032000D3*
X9096373Y2286000D3*
X8969373Y2032000D3*
X8842373Y2286000D3*
X8715373Y2032000D3*
X8588373Y2286000D3*
X8461373Y2032000D3*
X8334373Y2286000D3*
D18*
X9350473Y1397000D3*
X8207273D3*
D15*
X7651750Y2032000D3*
X7524750Y2286000D3*
X7397750Y2032000D3*
X7270750Y2286000D3*
X7143750Y2032000D3*
X7016750Y2286000D3*
X6889750Y2032000D3*
X6762750Y2286000D3*
D18*
X7778850Y1397000D3*
X6635650D3*
D25*
X3524250Y3048000D3*
X3905250D3*
X4286250D3*
X4667250D3*
X5048250D3*
X5429250D3*
X5810250D3*
X6191250D3*
Y381000D3*
X5810250D3*
X5429250D3*
X5048250D3*
X4667250D3*
X4286250D3*
X3905250D3*
X3524250D3*
D15*
X6080123Y2032000D3*
X5953123Y2286000D3*
X5826123Y2032000D3*
X5699123Y2286000D3*
X5572123Y2032000D3*
X5445123Y2286000D3*
X5318123Y2032000D3*
X5191123Y2286000D3*
D18*
X6207223Y1397000D3*
X5064023D3*
D15*
X4508500Y2032000D3*
X4381500Y2286000D3*
X4254500Y2032000D3*
X4127500Y2286000D3*
X4000500Y2032000D3*
X3873500Y2286000D3*
X3746500Y2032000D3*
X3619500Y2286000D3*
D18*
X4635600Y1397000D3*
X3492400D3*
D25*
X444500Y3048000D3*
X825500D3*
X1206500D3*
X1587500D3*
X1968500D3*
X2349500D3*
X2730500D3*
X3111500D3*
Y381000D3*
X2730500D3*
X2349500D3*
X1968500D3*
X1587500D3*
X1206500D3*
X825500D3*
X444500D3*
D15*
X2951873Y2032000D3*
X2824873Y2286000D3*
X2697873Y2032000D3*
X2570873Y2286000D3*
X2443873Y2032000D3*
X2316873Y2286000D3*
X2189873Y2032000D3*
X2062873Y2286000D3*
D18*
X3078973Y1397000D3*
X1935773D3*
D15*
X1380250Y2032000D3*
X1253250Y2286000D3*
X1126250Y2032000D3*
X999250Y2286000D3*
X872250Y2032000D3*
X745250Y2286000D3*
X618250Y2032000D3*
X491250Y2286000D3*
D18*
X1507350Y1397000D3*
X364150D3*
M02*
